<svg id="Ebene_1" data-name="Ebene 1" xmlns="http://www.w3.org/2000/svg" viewBox="0 0 76.95 88.88"><defs><style>.cls-1{fill:#f5a146;}</style></defs><path class="cls-1" d="M13,39.21v-1.7a4.77,4.77,0,0,0,.17-.62,13.91,13.91,0,0,1,4.18-8.69,16.37,16.37,0,0,1,8.59-4.36,4.31,4.31,0,0,0,3.41-2.58c.16-.4.31-.81.48-1.21,3.54-8.69,9.92-13.9,19.72-14.79a22.86,22.86,0,0,1,12.8,2.43A22,22,0,0,1,73.14,20.07,5.61,5.61,0,0,0,77.72,24c9.09,1.84,14.4,10.72,11.38,19A14.08,14.08,0,0,1,79,52.5a37,37,0,0,1-5.69.61,2.62,2.62,0,0,0-2.51,2.08,9.87,9.87,0,0,0-.15,1.88c0,1.43.11,2.87.11,4.3s-.09,2.91-.12,4.37c0,1.68-.62,2.26-2.38,2.26H34.81c-1.74,0-2.38-.58-2.41-2.25,0-2.15,0-4.31-.06-6.46,0-1.09.06-2.17,0-3.26a2.78,2.78,0,0,0-2.9-2.94,26.48,26.48,0,0,1-4.89-.46c-5.83-1.35-9.28-5.11-11-10.51A28.35,28.35,0,0,1,13,39.21ZM52.29,14.75a2.84,2.84,0,0,0-3.85-2.69,20.93,20.93,0,0,0-12,9.72,2.73,2.73,0,0,0,1.25,4.14,1.77,1.77,0,0,0,2.64-.77A17.87,17.87,0,0,1,44,20.31,18.08,18.08,0,0,1,51,16.38C52,16.08,52.29,15.64,52.29,14.75Z" transform="translate(-13 -5.15)"/><path class="cls-1" d="M23.57,84c1,.31,1.89.68,2.84.91A9.09,9.09,0,0,0,33.05,84a33.24,33.24,0,0,0,3.63-2.37,9.2,9.2,0,0,1,8-1.88,4.69,4.69,0,0,1,3.69,5.67c-.89,4.77-4.57,8-9.66,8.5a15.57,15.57,0,0,1-11-2.75,10,10,0,0,1-4.07-6.69A3.38,3.38,0,0,1,23.57,84Z" transform="translate(-13 -5.15)"/><path class="cls-1" d="M80.85,83.9a9.68,9.68,0,0,1-2.21,5.44,12.69,12.69,0,0,1-7.15,4.17,14.45,14.45,0,0,1-9.58-.63A9.53,9.53,0,0,1,56,84.59c-.19-2.55,1.28-4.48,4.27-5a9.27,9.27,0,0,1,7.32,1.92,34.32,34.32,0,0,0,3.68,2.42,9.63,9.63,0,0,0,8.82.29Z" transform="translate(-13 -5.15)"/></svg>