<svg id="Ebene_2" data-name="Ebene 2" xmlns="http://www.w3.org/2000/svg" viewBox="0 0 2032.2 764"><defs><style>.cls-1{fill:#f6a246;}.cls-2{fill:#f6a247;}</style></defs><path class="cls-1" d="M493.33,661v-8.34a20,20,0,0,0,.78-3.07A69.45,69.45,0,0,1,514,606.89c11.26-11.57,25-18.28,40.73-21.44,7.5-1.52,13.17-5.41,16.14-12.7.8-2,1.51-4,2.29-6,16.8-42.74,47-68.36,93.5-72.75,21.3-2,41.74,1.76,60.7,12,25,13.5,41.84,34.25,51.18,60.86,3.83,10.9,10.23,17,21.71,19.41,43.1,9,68.29,52.68,54,93.58-8.15,23.35-23.61,40.12-48.11,46.52-8.66,2.26-18,2.18-27,3-6.09.55-10.79,4.27-11.91,10.26a48.29,48.29,0,0,0-.7,9.23c.05,7.06.49,14.1.49,21.16s-.43,14.31-.54,21.46c-.14,8.29-3,11.14-11.28,11.14H596.75c-8.27,0-11.29-2.86-11.42-11.08q-.26-15.87-.3-31.76c0-5.34.29-10.69.21-16-.12-7.22-4-14.06-13.76-14.47-7.76-.32-15.72-.46-23.21-2.25-27.63-6.63-44-25.15-52.07-51.68C494.79,670.71,494.26,665.79,493.33,661ZM679.62,540.71c0-9.91-8.91-16.4-18.25-13.24-25.2,8.52-44,24.54-57,47.81-5.07,9.07-1.54,16.41,5.91,20.37,5.34,2.85,9.79,1.59,12.54-3.76a86.84,86.84,0,0,1,17.66-23.83,84.86,84.86,0,0,1,32.86-19.3C678,547.24,679.64,545.08,679.62,540.71Z" transform="translate(-493.33 -493.51)"/><path class="cls-1" d="M543.46,881.2c4.6,1.56,8.93,3.34,13.43,4.48,11.09,2.81,21.72.91,31.51-4.62a153.28,153.28,0,0,0,17.2-11.66c11.3-8.57,23.58-12.88,37.72-9.24,13,3.35,19.92,14.56,17.51,27.91-4.24,23.47-21.67,39.35-45.8,41.79-19.11,1.92-36.77-1.86-52.29-13.54-10.93-8.23-17.06-19.44-19.27-32.87A15.29,15.29,0,0,1,543.46,881.2Z" transform="translate(-493.33 -493.51)"/><path class="cls-1" d="M815.08,880.84a48.61,48.61,0,0,1-10.5,26.72c-8.77,11-20.45,17.28-33.88,20.53-15.44,3.72-30.92,3.88-45.43-3.08-16.86-8.1-26.59-22.09-27.93-40.8-.89-12.55,6.08-22,20.24-24.65,13-2.39,24.36,1.64,34.73,9.47a162,162,0,0,0,17.44,11.89c13.57,7.67,27.63,7.79,41.8,1.43C812.5,881.92,813.47,881.52,815.08,880.84Z" transform="translate(-493.33 -493.51)"/><path class="cls-2" d="M1058,836.43c-29.4,0-51.45-13.65-61.25-37.8-3.85-9.1-4.2-14-4.55-45.5v-25.9h-25.9v-41.3h25.9V634.48h43v51.45h31.15v41.3h-31.15v30.1c-1,31.85,4.55,38.85,31.15,38.85v40.25Z" transform="translate(-493.33 -493.51)"/><path class="cls-2" d="M1193.8,836.08V823.83c-14.35,9.8-26.25,14-39.9,14-38.85,0-72.8-35.7-72.8-76.65,0-42.35,35-77,77.7-77a77.91,77.91,0,0,1,62.3,31.15c11.55,15.4,15.75,29.75,15.75,54.95v65.8Zm-69.65-74.9c0,20,15.75,36.05,35,36.05,18.55,0,34.3-16.1,34.3-35.35,0-19.6-15.75-36-34.65-36C1139.55,725.83,1124.15,741.58,1124.15,761.18Z" transform="translate(-493.33 -493.51)"/><path class="cls-2" d="M1308.25,602.62v91.71c15-7.7,24.5-10.15,37.1-10.15,41,0,74.9,35,74.9,76.65a77.53,77.53,0,0,1-142.8,42c-9.45-14.7-12.25-27-12.25-52.85V602.62Zm-.35,158.56c0,19.6,15.75,35.7,35,35.7,18.9,0,34.65-16.1,34.65-35.35,0-20.3-15.4-36.4-34.65-36.4S1307.9,741.23,1307.9,761.18Z" transform="translate(-493.33 -493.51)"/><path class="cls-2" d="M1445.1,836.08V602.62h42.7V836.08Z" transform="translate(-493.33 -493.51)"/><path class="cls-2" d="M1660.7,787.43c-12.25,31.5-38.85,50.4-71.75,50.4-42.7,0-76.31-34-76.31-77,0-42.7,33.61-76.3,76-76.3,39.2,0,74.9,31.85,74.9,66.5,0,15.75-13.3,26.25-33.6,26.25h-72.45c6.64,14,16.45,21,30.8,21,9.45,0,16.1-3.15,24.15-10.85Zm-42.7-41.3c-6-14.7-15.75-21.7-30.45-21.7s-26.6,8.4-31.51,21.7Z" transform="translate(-493.33 -493.51)"/><path class="cls-2" d="M1835.34,750c0,25.9-2.8,38.15-12.25,52.85a77.53,77.53,0,0,1-142.8-42c0-41.65,34-77,74.2-77,12.6,0,22,2.8,37.8,10.5V602.62h43ZM1723,760.48c0,20.3,15.4,36.4,34.65,36.4s35-16.1,35-35.7-16.1-36-35.35-36C1738.74,725.13,1723,741.23,1723,760.48Z" transform="translate(-493.33 -493.51)"/><path class="cls-2" d="M2005.44,787.43c-12.25,31.5-38.85,50.4-71.75,50.4-42.7,0-76.3-34-76.3-77,0-42.7,33.6-76.3,75.95-76.3,39.2,0,74.9,31.85,74.9,66.5,0,15.75-13.3,26.25-33.6,26.25h-72.45c6.65,14,16.45,21,30.8,21,9.45,0,16.1-3.15,24.15-10.85Zm-42.7-41.3c-6-14.7-15.75-21.7-30.45-21.7s-26.6,8.4-31.5,21.7Z" transform="translate(-493.33 -493.51)"/><path class="cls-2" d="M2137.39,836.08V823.83c-14.35,9.8-26.25,14-39.9,14-38.85,0-72.8-35.7-72.8-76.65,0-42.35,35-77,77.7-77a77.91,77.91,0,0,1,62.3,31.15c11.55,15.4,15.75,29.75,15.75,54.95v65.8Zm-69.65-74.9c0,20,15.75,36.05,35,36.05,18.55,0,34.3-16.1,34.3-35.35,0-19.6-15.75-36-34.65-36C2083.14,725.83,2067.74,741.58,2067.74,761.18Z" transform="translate(-493.33 -493.51)"/><path class="cls-2" d="M2211.58,836.08V602.62h42.71V836.08Z" transform="translate(-493.33 -493.51)"/><path class="cls-2" d="M2427.18,787.43c-12.25,31.5-38.85,50.4-71.75,50.4-42.7,0-76.3-34-76.3-77,0-42.7,33.6-76.3,75.95-76.3,39.2,0,74.9,31.85,74.9,66.5,0,15.75-13.3,26.25-33.6,26.25h-72.45c6.65,14,16.45,21,30.8,21,9.45,0,16.1-3.15,24.15-10.85Zm-42.7-41.3c-5.95-14.7-15.75-21.7-30.45-21.7s-26.6,8.4-31.5,21.7Z" transform="translate(-493.33 -493.51)"/><path class="cls-2" d="M2453.08,836.08V759.43c0-23.45,1.05-30.45,6.3-40.95,11.2-22.05,30.45-32.55,59.15-32.55a63.54,63.54,0,0,1,7,.35v39.55h-5.25c-19.25.35-24.5,5.95-24.5,24.15v86.1Z" transform="translate(-493.33 -493.51)"/><text x="-493.33" y="-493.51"/><text x="-493.33" y="-493.51"/></svg>