<svg id="Ebene_2" data-name="Ebene 2" xmlns="http://www.w3.org/2000/svg" viewBox="0 0 2062.22 764"><defs><style>.cls-1{fill:#f6a246;}.cls-2{font-size:350px;fill:#f6a247;font-family:HoratioLTStd-Bold, Horatio LT Std;font-weight:700;}</style></defs><path class="cls-1" d="M493.33,661v-8.34a20,20,0,0,0,.78-3.07A69.45,69.45,0,0,1,514,606.89c11.26-11.57,25-18.28,40.73-21.44,7.5-1.52,13.17-5.41,16.14-12.7.8-2,1.51-4,2.29-6,16.8-42.74,47-68.36,93.5-72.75,21.3-2,41.74,1.76,60.7,12,25,13.5,41.84,34.25,51.18,60.86,3.83,10.9,10.23,17,21.71,19.41,43.1,9,68.29,52.68,54,93.58-8.15,23.35-23.61,40.12-48.11,46.52-8.66,2.26-18,2.18-27,3-6.09.55-10.79,4.27-11.91,10.26a48.29,48.29,0,0,0-.7,9.23c.05,7.06.49,14.1.49,21.16s-.43,14.31-.54,21.46c-.14,8.29-3,11.14-11.28,11.14H596.75c-8.27,0-11.29-2.86-11.42-11.08q-.26-15.87-.3-31.76c0-5.34.29-10.69.21-16-.12-7.22-4-14.06-13.76-14.47-7.76-.32-15.72-.46-23.21-2.25-27.63-6.63-44-25.15-52.07-51.68C494.79,670.71,494.26,665.79,493.33,661ZM679.62,540.71c0-9.91-8.91-16.4-18.25-13.24-25.2,8.52-44,24.54-57,47.81-5.07,9.07-1.54,16.41,5.91,20.37,5.34,2.85,9.79,1.59,12.54-3.76a86.84,86.84,0,0,1,17.66-23.83,84.86,84.86,0,0,1,32.86-19.3C678,547.24,679.64,545.08,679.62,540.71Z" transform="translate(-493.33 -493.51)"/><path class="cls-1" d="M543.46,881.2c4.6,1.56,8.93,3.34,13.43,4.48,11.09,2.81,21.72.91,31.51-4.62a153.28,153.28,0,0,0,17.2-11.66c11.3-8.57,23.58-12.88,37.72-9.24,13,3.35,19.92,14.56,17.51,27.91-4.24,23.47-21.67,39.35-45.8,41.79-19.11,1.92-36.77-1.86-52.29-13.54-10.93-8.23-17.06-19.44-19.27-32.87A15.29,15.29,0,0,1,543.46,881.2Z" transform="translate(-493.33 -493.51)"/><path class="cls-1" d="M815.08,880.84a48.61,48.61,0,0,1-10.5,26.72c-8.77,11-20.45,17.28-33.88,20.53-15.44,3.72-30.92,3.88-45.43-3.08-16.86-8.1-26.59-22.09-27.93-40.8-.89-12.55,6.08-22,20.24-24.65,13-2.39,24.36,1.64,34.73,9.47a162,162,0,0,0,17.44,11.89c13.57,7.67,27.63,7.79,41.8,1.43C812.5,881.92,813.47,881.52,815.08,880.84Z" transform="translate(-493.33 -493.51)"/><text class="cls-2" transform="translate(475.43 342.57)">tabledealer</text><text x="-493.33" y="-493.51"/><text x="-493.33" y="-493.51"/></svg>