<svg id="Ebene_1" data-name="Ebene 1" xmlns="http://www.w3.org/2000/svg" viewBox="0 0 494.21 106.3"><defs><style>.cls-1{fill:#f5a146;}.cls-2{fill:#f5a147;}</style></defs><path class="cls-1" d="M13.79,108.42v-2a4.13,4.13,0,0,0,.19-.75,16.88,16.88,0,0,1,4.83-10.38A18.55,18.55,0,0,1,28.72,90,5,5,0,0,0,32.64,87c.2-.48.37-1,.56-1.46,4.08-10.39,11.44-16.62,22.74-17.69A25.44,25.44,0,0,1,70.7,70.73a26,26,0,0,1,12.45,14.8,6.53,6.53,0,0,0,5.27,4.72A17.41,17.41,0,0,1,101.56,113c-2,5.68-5.75,9.76-11.71,11.32a39.43,39.43,0,0,1-6.55.72,3.07,3.07,0,0,0-2.9,2.5,12,12,0,0,0-.17,2.24c0,1.72.12,3.43.12,5.15s-.1,3.48-.13,5.22c0,2-.72,2.71-2.74,2.71H38.94c-2,0-2.74-.7-2.78-2.7q-.06-3.85-.07-7.72c0-1.3.07-2.6,0-3.9A3.28,3.28,0,0,0,32.8,125a28.79,28.79,0,0,1-5.65-.55c-6.72-1.61-10.7-6.11-12.66-12.56C14.15,110.78,14,109.58,13.79,108.42ZM59.1,79.16a3.31,3.31,0,0,0-4.44-3.22A24.38,24.38,0,0,0,40.79,87.57a3.33,3.33,0,0,0,1.44,5,2,2,0,0,0,3.05-.92,21.06,21.06,0,0,1,4.29-5.79,20.75,20.75,0,0,1,8-4.7C58.71,80.75,59.1,80.23,59.1,79.16Z" transform="translate(-13.79 -67.68)"/><path class="cls-1" d="M26,162c1.12.38,2.18.81,3.27,1.09a10.11,10.11,0,0,0,7.66-1.13,38,38,0,0,0,4.19-2.83c2.74-2.09,5.73-3.13,9.17-2.25a5.63,5.63,0,0,1,4.26,6.79A12.09,12.09,0,0,1,43.39,173.8a17.45,17.45,0,0,1-12.72-3.29,12,12,0,0,1-4.68-8A3.21,3.21,0,0,1,26,162Z" transform="translate(-13.79 -67.68)"/><path class="cls-1" d="M92,161.88a11.82,11.82,0,0,1-2.56,6.5,14.49,14.49,0,0,1-8.23,5,16.16,16.16,0,0,1-11-.75,11.38,11.38,0,0,1-6.79-9.92c-.22-3,1.47-5.36,4.92-6a10.37,10.37,0,0,1,8.44,2.3A40.13,40.13,0,0,0,81,161.9a10.78,10.78,0,0,0,10.17.35C91.41,162.14,91.65,162.05,92,161.88Z" transform="translate(-13.79 -67.68)"/><path class="cls-2" d="M151.12,151.08c-7.15,0-12.52-3.32-14.9-9.19-.94-2.22-1-3.41-1.11-11.07v-6.3h-6.3v-10h6.3V102h10.47v12.51h7.58v10h-7.58v7.32c-.25,7.75,1.11,9.45,7.58,9.45v9.79Z" transform="translate(-13.79 -67.68)"/><path class="cls-2" d="M184.14,151v-3c-3.49,2.38-6.38,3.4-9.7,3.4-9.45,0-17.71-8.68-17.71-18.64a18.91,18.91,0,0,1,34.05-11.15c2.81,3.74,3.83,7.23,3.83,13.36v16ZM167.2,132.78a8.43,8.43,0,1,0,8.43-8.6A8.49,8.49,0,0,0,167.2,132.78Z" transform="translate(-13.79 -67.68)"/><path class="cls-2" d="M212,94.22v22.3c3.66-1.87,6-2.47,9-2.47,10,0,18.22,8.52,18.22,18.64a18.86,18.86,0,0,1-34.73,10.22c-2.3-3.58-3-6.56-3-12.85V94.22Zm-.08,38.56A8.48,8.48,0,1,0,220.4,124,8.62,8.62,0,0,0,211.89,132.78Z" transform="translate(-13.79 -67.68)"/><path class="cls-2" d="M245.25,151V94.22h10.39V151Z" transform="translate(-13.79 -67.68)"/><path class="cls-2" d="M297.68,139.16c-3,7.66-9.45,12.26-17.45,12.26a18.64,18.64,0,0,1-.08-37.28c9.53,0,18.21,7.74,18.21,16.17,0,3.83-3.23,6.38-8.17,6.38H272.57c1.62,3.41,4,5.11,7.49,5.11,2.3,0,3.92-.76,5.88-2.64Zm-10.38-10c-1.45-3.58-3.83-5.28-7.41-5.28a7.93,7.93,0,0,0-7.66,5.28Z" transform="translate(-13.79 -67.68)"/><path class="cls-2" d="M340.15,130.06c0,6.29-.68,9.27-3,12.85a18.86,18.86,0,0,1-34.73-10.22c0-10.12,8.25-18.72,18-18.72,3.07,0,5.37.68,9.2,2.55V94.22h10.46Zm-27.32,2.55a8.48,8.48,0,1,0,16.94.17,8.77,8.77,0,0,0-8.6-8.77A8.58,8.58,0,0,0,312.83,132.61Z" transform="translate(-13.79 -67.68)"/><path class="cls-2" d="M381.52,139.16c-3,7.66-9.45,12.26-17.45,12.26a18.64,18.64,0,0,1-.08-37.28c9.53,0,18.21,7.74,18.21,16.17,0,3.83-3.23,6.38-8.17,6.38H356.41c1.62,3.41,4,5.11,7.49,5.11,2.3,0,3.92-.76,5.87-2.64Zm-10.38-10c-1.45-3.58-3.83-5.28-7.41-5.28a7.93,7.93,0,0,0-7.66,5.28Z" transform="translate(-13.79 -67.68)"/><path class="cls-2" d="M413.61,151v-3c-3.49,2.38-6.38,3.4-9.7,3.4-9.45,0-17.71-8.68-17.71-18.64a18.91,18.91,0,0,1,34.05-11.15c2.81,3.74,3.83,7.23,3.83,13.36v16Zm-16.94-18.21a8.43,8.43,0,1,0,8.43-8.6A8.49,8.49,0,0,0,396.67,132.78Z" transform="translate(-13.79 -67.68)"/><path class="cls-2" d="M431.65,151V94.22H442V151Z" transform="translate(-13.79 -67.68)"/><path class="cls-2" d="M484.08,139.16c-3,7.66-9.44,12.26-17.45,12.26a18.64,18.64,0,0,1-.08-37.28c9.53,0,18.21,7.74,18.21,16.17,0,3.83-3.23,6.38-8.17,6.38H459c1.62,3.41,4,5.11,7.49,5.11,2.3,0,3.92-.76,5.88-2.64Zm-10.38-10c-1.45-3.58-3.83-5.28-7.41-5.28a7.94,7.94,0,0,0-7.66,5.28Z" transform="translate(-13.79 -67.68)"/><path class="cls-2" d="M490.38,151V132.35c0-5.7.26-7.4,1.53-10,2.73-5.36,7.41-7.91,14.39-7.91a16.49,16.49,0,0,1,1.7.08v9.62h-1.28c-4.68.09-6,1.45-6,5.88V151Z" transform="translate(-13.79 -67.68)"/></svg>